<mxfile host="Electron" agent="Mozilla/5.0 (Macintosh; Intel Mac OS X 10_15_7) AppleWebKit/537.36 (KHTML, like Gecko) draw.io/26.1.1 Chrome/132.0.6834.210 Electron/34.3.3 Safari/537.36" version="26.1.1">
  <diagram name="Page-1" id="KJJj13tCwE1rPexVbZAn">
    <mxGraphModel dx="813" dy="604" grid="1" gridSize="10" guides="1" tooltips="1" connect="1" arrows="1" fold="1" page="1" pageScale="1" pageWidth="850" pageHeight="1100" math="0" shadow="0">
      <root>
        <mxCell id="0" />
        <mxCell id="1" parent="0" />
        <mxCell id="2xokoUJkXXpFb5ttbLDk-2" value="UML Use-Case Diagrams" style="text;strokeColor=none;fillColor=none;html=1;fontSize=24;fontStyle=1;verticalAlign=middle;align=center;" parent="1" vertex="1">
          <mxGeometry x="310" y="110" width="100" height="40" as="geometry" />
        </mxCell>
        <mxCell id="2xokoUJkXXpFb5ttbLDk-3" value="Actor" style="shape=umlActor;verticalLabelPosition=bottom;verticalAlign=top;html=1;" parent="1" vertex="1">
          <mxGeometry x="345" y="180" width="30" height="60" as="geometry" />
        </mxCell>
        <mxCell id="2xokoUJkXXpFb5ttbLDk-4" value="Use Case" style="ellipse;whiteSpace=wrap;html=1;" parent="1" vertex="1">
          <mxGeometry x="130" y="175" width="140" height="70" as="geometry" />
        </mxCell>
        <mxCell id="2xokoUJkXXpFb5ttbLDk-11" value="&amp;lt;&amp;lt;actor&amp;gt;&amp;gt;&lt;br&gt;Actor/Role" style="html=1;whiteSpace=wrap;" parent="1" vertex="1">
          <mxGeometry x="450" y="190" width="110" height="50" as="geometry" />
        </mxCell>
        <mxCell id="2xokoUJkXXpFb5ttbLDk-14" value="Subject" style="html=1;whiteSpace=wrap;" parent="1" vertex="1">
          <mxGeometry x="190" y="310" width="110" height="50" as="geometry" />
        </mxCell>
        <mxCell id="2xokoUJkXXpFb5ttbLDk-19" value="" style="line;strokeWidth=1;fillColor=none;align=left;verticalAlign=middle;spacingTop=-1;spacingLeft=3;spacingRight=3;rotatable=0;labelPosition=right;points=[];portConstraint=eastwest;strokeColor=inherit;" parent="1" vertex="1">
          <mxGeometry x="160" y="400" width="140" height="8" as="geometry" />
        </mxCell>
        <mxCell id="2xokoUJkXXpFb5ttbLDk-20" value="" style="html=1;whiteSpace=wrap;" parent="1" vertex="1">
          <mxGeometry x="525" y="310" width="130" height="230" as="geometry" />
        </mxCell>
        <mxCell id="2xokoUJkXXpFb5ttbLDk-22" value="Use Case 1" style="ellipse;whiteSpace=wrap;html=1;" parent="1" vertex="1">
          <mxGeometry x="535" y="358" width="110" height="50" as="geometry" />
        </mxCell>
        <mxCell id="2xokoUJkXXpFb5ttbLDk-24" value="Use Case 2" style="ellipse;whiteSpace=wrap;html=1;" parent="1" vertex="1">
          <mxGeometry x="535" y="420" width="110" height="50" as="geometry" />
        </mxCell>
        <mxCell id="2xokoUJkXXpFb5ttbLDk-25" value="Subject" style="text;align=center;fontStyle=1;verticalAlign=middle;spacingLeft=3;spacingRight=3;strokeColor=none;rotatable=0;points=[[0,0.5],[1,0.5]];portConstraint=eastwest;html=1;" parent="1" vertex="1">
          <mxGeometry x="550" y="320" width="80" height="26" as="geometry" />
        </mxCell>
        <mxCell id="2xokoUJkXXpFb5ttbLDk-26" value="Use Case 3" style="ellipse;whiteSpace=wrap;html=1;" parent="1" vertex="1">
          <mxGeometry x="535" y="480" width="110" height="50" as="geometry" />
        </mxCell>
        <mxCell id="2xokoUJkXXpFb5ttbLDk-28" value="Sample" style="text;align=center;fontStyle=1;verticalAlign=middle;spacingLeft=3;spacingRight=3;strokeColor=none;rotatable=0;points=[[0,0.5],[1,0.5]];portConstraint=eastwest;html=1;" parent="1" vertex="1">
          <mxGeometry x="550" y="570" width="80" height="26" as="geometry" />
        </mxCell>
        <mxCell id="2xokoUJkXXpFb5ttbLDk-29" value="Actor 1" style="shape=umlActor;verticalLabelPosition=bottom;verticalAlign=top;html=1;" parent="1" vertex="1">
          <mxGeometry x="410" y="348" width="30" height="60" as="geometry" />
        </mxCell>
        <mxCell id="2xokoUJkXXpFb5ttbLDk-30" value="Actor 2" style="shape=umlActor;verticalLabelPosition=bottom;verticalAlign=top;html=1;" parent="1" vertex="1">
          <mxGeometry x="410" y="450" width="30" height="60" as="geometry" />
        </mxCell>
        <mxCell id="2xokoUJkXXpFb5ttbLDk-39" value="" style="shape=table;startSize=0;container=1;collapsible=1;childLayout=tableLayout;fixedRows=1;rowLines=0;fontStyle=0;align=center;resizeLast=1;strokeColor=none;fillColor=none;collapsible=0;whiteSpace=wrap;html=1;" parent="1" vertex="1">
          <mxGeometry x="250" y="408" width="50" height="30" as="geometry" />
        </mxCell>
        <mxCell id="2xokoUJkXXpFb5ttbLDk-40" value="" style="shape=tableRow;horizontal=0;startSize=0;swimlaneHead=0;swimlaneBody=0;fillColor=none;collapsible=0;dropTarget=0;points=[[0,0.5],[1,0.5]];portConstraint=eastwest;top=0;left=0;right=0;bottom=0;" parent="2xokoUJkXXpFb5ttbLDk-39" vertex="1">
          <mxGeometry width="50" height="30" as="geometry" />
        </mxCell>
        <mxCell id="2xokoUJkXXpFb5ttbLDk-41" value="" style="shape=partialRectangle;connectable=0;fillColor=none;top=0;left=0;bottom=0;right=0;editable=1;overflow=hidden;" parent="2xokoUJkXXpFb5ttbLDk-40" vertex="1">
          <mxGeometry width="30" height="30" as="geometry">
            <mxRectangle width="30" height="30" as="alternateBounds" />
          </mxGeometry>
        </mxCell>
        <mxCell id="2xokoUJkXXpFb5ttbLDk-42" value="*" style="shape=partialRectangle;connectable=0;fillColor=none;top=0;left=0;bottom=0;right=0;align=left;spacingLeft=6;overflow=hidden;fontSize=24;" parent="2xokoUJkXXpFb5ttbLDk-40" vertex="1">
          <mxGeometry x="30" width="20" height="30" as="geometry">
            <mxRectangle width="20" height="30" as="alternateBounds" />
          </mxGeometry>
        </mxCell>
        <mxCell id="2xokoUJkXXpFb5ttbLDk-43" value="" style="shape=table;startSize=0;container=1;collapsible=1;childLayout=tableLayout;fixedRows=1;rowLines=0;fontStyle=0;align=center;resizeLast=1;strokeColor=none;fillColor=none;collapsible=0;whiteSpace=wrap;html=1;" parent="1" vertex="1">
          <mxGeometry x="130" y="408" width="50" height="30" as="geometry" />
        </mxCell>
        <mxCell id="2xokoUJkXXpFb5ttbLDk-44" value="" style="shape=tableRow;horizontal=0;startSize=0;swimlaneHead=0;swimlaneBody=0;fillColor=none;collapsible=0;dropTarget=0;points=[[0,0.5],[1,0.5]];portConstraint=eastwest;top=0;left=0;right=0;bottom=0;" parent="2xokoUJkXXpFb5ttbLDk-43" vertex="1">
          <mxGeometry width="50" height="30" as="geometry" />
        </mxCell>
        <mxCell id="2xokoUJkXXpFb5ttbLDk-45" value="" style="shape=partialRectangle;connectable=0;fillColor=none;top=0;left=0;bottom=0;right=0;editable=1;overflow=hidden;" parent="2xokoUJkXXpFb5ttbLDk-44" vertex="1">
          <mxGeometry width="30" height="30" as="geometry">
            <mxRectangle width="30" height="30" as="alternateBounds" />
          </mxGeometry>
        </mxCell>
        <mxCell id="2xokoUJkXXpFb5ttbLDk-46" value="*" style="shape=partialRectangle;connectable=0;fillColor=none;top=0;left=0;bottom=0;right=0;align=left;spacingLeft=6;overflow=hidden;fontSize=24;" parent="2xokoUJkXXpFb5ttbLDk-44" vertex="1">
          <mxGeometry x="30" width="20" height="30" as="geometry">
            <mxRectangle width="20" height="30" as="alternateBounds" />
          </mxGeometry>
        </mxCell>
        <mxCell id="2xokoUJkXXpFb5ttbLDk-47" value="&amp;lt;&amp;lt;actor&amp;gt;&amp;gt;&lt;br&gt;Actor 3" style="html=1;whiteSpace=wrap;" parent="1" vertex="1">
          <mxGeometry x="700" y="410" width="110" height="50" as="geometry" />
        </mxCell>
        <mxCell id="2xokoUJkXXpFb5ttbLDk-52" value="" style="endArrow=none;html=1;rounded=0;entryX=0;entryY=0.5;entryDx=0;entryDy=0;" parent="1" source="2xokoUJkXXpFb5ttbLDk-29" target="2xokoUJkXXpFb5ttbLDk-22" edge="1">
          <mxGeometry width="50" height="50" relative="1" as="geometry">
            <mxPoint x="440" y="390" as="sourcePoint" />
            <mxPoint x="490" y="340" as="targetPoint" />
          </mxGeometry>
        </mxCell>
        <mxCell id="2xokoUJkXXpFb5ttbLDk-53" value="&lt;font style=&quot;font-size: 15px;&quot;&gt;&lt;b&gt;*&lt;/b&gt;&lt;/font&gt;" style="edgeLabel;html=1;align=center;verticalAlign=middle;resizable=0;points=[];" parent="2xokoUJkXXpFb5ttbLDk-52" vertex="1" connectable="0">
          <mxGeometry x="-0.5012" y="3" relative="1" as="geometry">
            <mxPoint as="offset" />
          </mxGeometry>
        </mxCell>
        <mxCell id="2xokoUJkXXpFb5ttbLDk-54" value="&lt;font style=&quot;font-size: 15px;&quot;&gt;&lt;b&gt;*&lt;/b&gt;&lt;/font&gt;" style="edgeLabel;html=1;align=center;verticalAlign=middle;resizable=0;points=[];" parent="2xokoUJkXXpFb5ttbLDk-52" vertex="1" connectable="0">
          <mxGeometry x="0.5613" y="1" relative="1" as="geometry">
            <mxPoint as="offset" />
          </mxGeometry>
        </mxCell>
        <mxCell id="2xokoUJkXXpFb5ttbLDk-55" value="" style="endArrow=none;html=1;rounded=0;entryX=0;entryY=0.5;entryDx=0;entryDy=0;" parent="1" target="2xokoUJkXXpFb5ttbLDk-24" edge="1">
          <mxGeometry width="50" height="50" relative="1" as="geometry">
            <mxPoint x="440" y="480" as="sourcePoint" />
            <mxPoint x="535" y="484" as="targetPoint" />
          </mxGeometry>
        </mxCell>
        <mxCell id="2xokoUJkXXpFb5ttbLDk-56" value="&lt;font style=&quot;font-size: 15px;&quot;&gt;&lt;b&gt;*&lt;/b&gt;&lt;/font&gt;" style="edgeLabel;html=1;align=center;verticalAlign=middle;resizable=0;points=[];" parent="2xokoUJkXXpFb5ttbLDk-55" vertex="1" connectable="0">
          <mxGeometry x="-0.5012" y="3" relative="1" as="geometry">
            <mxPoint as="offset" />
          </mxGeometry>
        </mxCell>
        <mxCell id="2xokoUJkXXpFb5ttbLDk-57" value="&lt;font style=&quot;font-size: 15px;&quot;&gt;&lt;b&gt;*&lt;/b&gt;&lt;/font&gt;" style="edgeLabel;html=1;align=center;verticalAlign=middle;resizable=0;points=[];" parent="2xokoUJkXXpFb5ttbLDk-55" vertex="1" connectable="0">
          <mxGeometry x="0.5613" y="1" relative="1" as="geometry">
            <mxPoint as="offset" />
          </mxGeometry>
        </mxCell>
        <mxCell id="2xokoUJkXXpFb5ttbLDk-58" value="Association" style="text;align=center;fontStyle=1;verticalAlign=middle;spacingLeft=3;spacingRight=3;strokeColor=none;rotatable=0;points=[[0,0.5],[1,0.5]];portConstraint=eastwest;html=1;" parent="1" vertex="1">
          <mxGeometry x="80" y="391" width="80" height="26" as="geometry" />
        </mxCell>
        <mxCell id="2xokoUJkXXpFb5ttbLDk-60" value="&amp;lt;&amp;lt;include&amp;gt;&amp;gt;" style="html=1;verticalAlign=bottom;endArrow=open;dashed=1;endSize=8;curved=0;rounded=0;" parent="1" edge="1">
          <mxGeometry relative="1" as="geometry">
            <mxPoint x="260" y="482.69" as="sourcePoint" />
            <mxPoint x="180" y="482.69" as="targetPoint" />
          </mxGeometry>
        </mxCell>
        <mxCell id="2xokoUJkXXpFb5ttbLDk-61" value="Include" style="text;align=center;fontStyle=1;verticalAlign=middle;spacingLeft=3;spacingRight=3;strokeColor=none;rotatable=0;points=[[0,0.5],[1,0.5]];portConstraint=eastwest;html=1;" parent="1" vertex="1">
          <mxGeometry x="90" y="470" width="80" height="26" as="geometry" />
        </mxCell>
        <mxCell id="2xokoUJkXXpFb5ttbLDk-63" value="&amp;lt;&amp;lt;extend&amp;gt;&amp;gt;" style="html=1;verticalAlign=bottom;endArrow=open;dashed=1;endSize=8;curved=0;rounded=0;" parent="1" edge="1">
          <mxGeometry relative="1" as="geometry">
            <mxPoint x="170" y="530" as="sourcePoint" />
            <mxPoint x="270" y="530.31" as="targetPoint" />
            <mxPoint as="offset" />
          </mxGeometry>
        </mxCell>
        <mxCell id="2xokoUJkXXpFb5ttbLDk-64" value="Extend" style="text;align=center;fontStyle=1;verticalAlign=middle;spacingLeft=3;spacingRight=3;strokeColor=none;rotatable=0;points=[[0,0.5],[1,0.5]];portConstraint=eastwest;html=1;" parent="1" vertex="1">
          <mxGeometry x="90" y="514" width="80" height="26" as="geometry" />
        </mxCell>
        <mxCell id="2xokoUJkXXpFb5ttbLDk-65" value="" style="endArrow=block;endSize=16;endFill=0;html=1;rounded=0;" parent="1" edge="1">
          <mxGeometry width="160" relative="1" as="geometry">
            <mxPoint x="220" y="620" as="sourcePoint" />
            <mxPoint x="220" y="560" as="targetPoint" />
          </mxGeometry>
        </mxCell>
        <mxCell id="2xokoUJkXXpFb5ttbLDk-69" value="Generalization" style="text;align=center;fontStyle=1;verticalAlign=middle;spacingLeft=3;spacingRight=3;strokeColor=none;rotatable=0;points=[[0,0.5],[1,0.5]];portConstraint=eastwest;html=1;" parent="1" vertex="1">
          <mxGeometry x="115" y="580" width="80" height="26" as="geometry" />
        </mxCell>
        <mxCell id="2xokoUJkXXpFb5ttbLDk-70" value="" style="endArrow=none;html=1;rounded=0;entryX=1;entryY=0.5;entryDx=0;entryDy=0;" parent="1" target="2xokoUJkXXpFb5ttbLDk-26" edge="1">
          <mxGeometry width="50" height="50" relative="1" as="geometry">
            <mxPoint x="700" y="434" as="sourcePoint" />
            <mxPoint x="795" y="438" as="targetPoint" />
          </mxGeometry>
        </mxCell>
        <mxCell id="2xokoUJkXXpFb5ttbLDk-71" value="&lt;font style=&quot;font-size: 15px;&quot;&gt;&lt;b&gt;*&lt;/b&gt;&lt;/font&gt;" style="edgeLabel;html=1;align=center;verticalAlign=middle;resizable=0;points=[];" parent="2xokoUJkXXpFb5ttbLDk-70" vertex="1" connectable="0">
          <mxGeometry x="-0.5012" y="3" relative="1" as="geometry">
            <mxPoint as="offset" />
          </mxGeometry>
        </mxCell>
        <mxCell id="2xokoUJkXXpFb5ttbLDk-72" value="&lt;font style=&quot;font-size: 15px;&quot;&gt;&lt;b&gt;*&lt;/b&gt;&lt;/font&gt;" style="edgeLabel;html=1;align=center;verticalAlign=middle;resizable=0;points=[];" parent="2xokoUJkXXpFb5ttbLDk-70" vertex="1" connectable="0">
          <mxGeometry x="0.5613" y="1" relative="1" as="geometry">
            <mxPoint as="offset" />
          </mxGeometry>
        </mxCell>
        <mxCell id="2xokoUJkXXpFb5ttbLDk-73" value="" style="endArrow=none;html=1;rounded=0;entryX=0;entryY=0.5;entryDx=0;entryDy=0;" parent="1" target="2xokoUJkXXpFb5ttbLDk-47" edge="1">
          <mxGeometry width="50" height="50" relative="1" as="geometry">
            <mxPoint x="645" y="381" as="sourcePoint" />
            <mxPoint x="740" y="385" as="targetPoint" />
          </mxGeometry>
        </mxCell>
        <mxCell id="2xokoUJkXXpFb5ttbLDk-74" value="&lt;font style=&quot;font-size: 15px;&quot;&gt;&lt;b&gt;*&lt;/b&gt;&lt;/font&gt;" style="edgeLabel;html=1;align=center;verticalAlign=middle;resizable=0;points=[];" parent="2xokoUJkXXpFb5ttbLDk-73" vertex="1" connectable="0">
          <mxGeometry x="-0.5012" y="3" relative="1" as="geometry">
            <mxPoint as="offset" />
          </mxGeometry>
        </mxCell>
        <mxCell id="2xokoUJkXXpFb5ttbLDk-75" value="&lt;font style=&quot;font-size: 15px;&quot;&gt;&lt;b&gt;*&lt;/b&gt;&lt;/font&gt;" style="edgeLabel;html=1;align=center;verticalAlign=middle;resizable=0;points=[];" parent="2xokoUJkXXpFb5ttbLDk-73" vertex="1" connectable="0">
          <mxGeometry x="0.5613" y="1" relative="1" as="geometry">
            <mxPoint as="offset" />
          </mxGeometry>
        </mxCell>
      </root>
    </mxGraphModel>
  </diagram>
</mxfile>
